<svg width="159" height="159" viewBox="0 0 159 159" fill="none" xmlns="http://www.w3.org/2000/svg">
<g id="Check mark">
<g id="green circle">
<path d="M79.5016 159.003C123.409 159.003 159.003 123.409 159.003 79.5016C159.003 35.5941 123.409 0 79.5016 0C35.5941 0 0 35.5941 0 79.5016C0 123.409 35.5941 159.003 79.5016 159.003Z" fill="#26E3C1"/>
<path d="M79.5016 159.003C123.409 159.003 159.003 123.409 159.003 79.5016C159.003 35.5941 123.409 0 79.5016 0C35.5941 0 0 35.5941 0 79.5016C0 123.409 35.5941 159.003 79.5016 159.003Z" fill="black" fill-opacity="0.2"/>
</g>
<path id="Check mark_2" d="M56.777 114.189L32.8451 90.2571C28.8837 86.2957 28.8837 79.8757 32.8451 75.9143C36.8065 71.9529 43.2265 71.9529 47.1879 75.9143L63.9484 92.6748L111.809 44.8141C115.77 40.8527 122.19 40.8527 126.152 44.8141C130.113 48.7755 130.113 55.1955 126.152 59.1569L71.1198 114.189C67.1584 118.15 60.7384 118.15 56.777 114.189Z" fill="white"/>
</g>
</svg>
