<svg width="93" height="80" viewBox="0 0 93 80" fill="none" xmlns="http://www.w3.org/2000/svg">
<g id="Vector" filter="url(#filter0_d_273_702)">
<path d="M66.8885 20.6399C46.0591 4.58834 47.4651 5.5883 47.0065 5.506C46.585 5.43078 46.2078 5.60954 45.9467 5.94846C45.6456 6.33605 45.9192 5.53786 42.0986 19.7222L49.7779 20.0974C52.3765 20.2249 54.6158 22.0788 55.2241 24.607L60.0868 44.8221C68.5761 22.1885 68.044 23.8123 68.0458 23.1247C68.0493 22.1239 67.5632 21.1585 66.8894 20.6408L66.8885 20.6399ZM62.0967 27.1573C61.0271 28.1962 59.3749 27.6246 58.3956 26.0653C56.7691 23.4787 57.9246 20.224 60.1957 20.7824C62.573 21.3673 63.8179 25.4866 62.0967 27.1573ZM88.9584 16.4631C88.877 16.1764 88.6282 16.1286 88.3431 16.2268C70.3957 22.3841 71.7397 21.8637 71.2333 22.2345C70.5364 22.7478 69.8742 23.607 69.5651 24.415C60.5897 47.8989 61.0775 46.5052 61.0802 46.8742C61.082 47.1795 61.2396 47.3689 61.5503 47.3591C61.8735 47.3503 60.7951 47.8308 78.1174 39.3772C78.8107 39.0329 79.6146 38.0932 79.9732 37.2914C89.2462 16.4799 89.1231 17.0294 88.9584 16.4631ZM76.7636 31.7775C74.8245 34.7243 72.1621 35.1906 73.2857 32.4288C73.5973 31.6704 74.11 30.9244 74.6598 30.3147C77.0416 27.683 78.7336 28.7705 76.7636 31.7775ZM88.0066 13.688C87.7073 13.3482 88.9204 14.2171 69.1694 0.754868C68.3982 0.229226 67.1869 -0.103504 66.4635 0.0292339C47.5271 3.47334 48.664 3.22025 48.3877 3.42467C47.9335 3.76359 48.2549 4.27685 48.7331 4.64409C69.3774 20.3656 68.4168 19.8293 69.775 20.1629C70.2761 20.2877 70.9136 20.3532 71.4024 20.1912C89.0709 14.3596 88.1075 14.7419 88.2483 14.4994C88.3962 14.2393 88.2049 13.9136 88.0066 13.6897V13.688ZM60.3922 8.02006C58.7294 8.39792 55.8713 7.37583 55.0487 6.1219C54.0606 4.63435 56.6425 4.03526 59.3209 5.2361C61.4494 6.19624 62.0125 7.65104 60.3913 8.01917L60.3922 8.02006ZM65.37 2.92204C66.0925 2.23711 68.5992 2.65567 70.1885 3.75386C72.6092 5.41751 70.3027 6.58914 67.1763 5.19451C65.7702 4.56533 64.7308 3.51316 65.37 2.92204ZM71.7424 16.3976C69.7467 17.0064 65.9491 15.2622 65.8491 13.6827C65.7472 12.1597 69.2243 12.2916 71.436 13.9012C72.8385 14.9242 72.9483 16.033 71.7433 16.3985L71.7424 16.3976ZM79.3472 13.3543C77.6437 12.9172 76.0659 11.8332 75.9047 10.9323C75.6665 9.5607 78.7912 9.69432 80.9401 11.1845C83.1032 12.6809 82.1301 14.0694 79.3472 13.3543ZM7.69311 44.0257C6.61379 41.0983 8.51921 40.1046 10.7106 42.4664C11.3543 43.1593 11.913 44.0504 12.2397 44.9637C13.2748 47.8556 11.3685 48.821 9.1815 46.445C8.55462 45.7636 8.01717 44.9053 7.69311 44.0257ZM13.0587 58.5861C12.0626 55.8827 13.984 55.1809 16.1214 57.518C18.2659 59.8622 18.4261 62.8736 16.387 62.2497C15.1333 61.8656 13.6626 60.2232 13.0587 58.5861ZM14.6135 45.453C14.262 44.4557 14.1133 43.0558 14.9978 42.6027C16.07 42.0532 17.8488 43.3425 18.9175 45.0849C20.3864 47.4795 20.0464 49.7528 18.234 49.3449C16.8722 49.0387 15.2661 47.3052 14.6144 45.4539L14.6135 45.453ZM19.9429 60.579C19.1354 58.2861 20.4174 57.303 22.3202 58.6162C24.7631 60.3029 25.9876 64.0027 24.3327 64.4611C22.9798 64.8372 20.7087 62.7532 19.9429 60.579ZM22.1759 47.0131C21.9324 46.2849 21.7845 45.3504 22.1174 44.6628C22.7452 43.362 24.547 43.9018 25.9725 45.4052C28.4792 48.0485 28.4508 51.643 26.0142 51.0962C24.524 50.7599 22.8222 48.9449 22.1759 47.0131ZM27.4406 62.7497C27.1006 61.7355 27.0767 60.4816 28.048 60.1852C29.8799 59.6268 33.1072 63.0709 33.0187 65.5318C33.0063 65.884 32.9186 66.1778 32.7655 66.3991C31.7233 67.9123 28.3959 65.6062 27.4406 62.7497ZM36.4346 70.3538L27.553 42.347C27.1209 40.9833 25.9114 39.6869 24.8481 39.517C3.23327 36.0623 4.64728 36.2145 4.34712 36.4056C3.83181 36.733 3.98056 37.6666 4.21608 38.2993L13.4288 63.0709C13.8105 64.0974 14.7632 65.2 15.5963 65.4726C36.8269 72.4147 35.5138 72.0502 35.9282 71.9705C36.3921 71.882 36.7613 71.3838 36.4346 70.3538ZM25.4466 23.8893C27.6185 22.6053 31.2479 22.1319 31.2638 23.1301C31.2709 23.5504 30.6121 24.0061 30.2544 24.2229C28.0542 25.5547 24.2956 26.029 24.3859 24.9733C24.4213 24.5512 25.0792 24.107 25.4466 23.8893ZM13.3996 31.0085C13.7742 30.7873 14.1947 30.5846 14.633 30.4067C18.3774 28.8935 21.0009 29.8227 18.1171 31.5678C15.661 33.0544 11.8395 33.4668 12.1335 32.2385C12.2495 31.7545 12.9675 31.2633 13.3996 31.0085ZM25.1677 27.8741C28.0063 26.1494 32.5131 26.0335 31.0725 27.6945C29.5381 29.4643 23.9166 30.5165 24.0388 29.0741C24.0786 28.6042 24.7613 28.121 25.1677 27.8741ZM37.0951 24.6981C37.8336 24.2353 38.7792 23.8805 39.6212 23.6566C43.7499 22.5566 44.9815 24.2043 41.3832 25.691C37.6618 27.2299 34.3725 26.4034 37.0943 24.699L37.0951 24.6981ZM24.8534 32.3668C25.9938 31.6527 27.6274 31.1173 29.0042 30.9607C32.9266 30.5147 31.78 33.0588 27.4707 34.1898C24.0034 35.0995 22.3397 33.9411 24.8534 32.3668ZM29.3097 36.5985C52.0498 21.6425 50.7571 22.5434 50.9634 22.2478C51.2937 21.777 50.7686 21.5558 50.1418 21.5257C28.1648 20.4514 28.9351 20.2744 27.1094 21.0009C26.8456 21.1062 26.5968 21.2239 26.3798 21.3496C4.18863 34.2685 5.53624 33.4473 5.19889 33.7632C4.73848 34.1933 4.78983 34.5455 5.39457 34.6349C27.2927 37.8817 25.6042 37.6852 26.3294 37.6144C27.3122 37.5188 28.5004 37.1295 29.3106 36.5968L29.3097 36.5985ZM54.6352 53.6226C55.6207 52.8076 56.1537 51.3165 56.2024 50.0051C56.3246 46.7114 53.7445 45.576 52.1579 48.1742C50.5606 50.7891 51.5434 54.5358 53.6932 54.0996C54.0057 54.0359 54.3245 53.8792 54.6352 53.6226ZM43.5764 62.7656C44.2962 62.1709 44.7938 61.2736 45.0586 60.3657C46.0396 56.9995 43.8739 54.3934 41.6453 56.1499C39.3344 57.9693 39.2768 62.5329 41.5072 63.2815C42.2359 63.5257 42.9796 63.2594 43.5764 62.7656ZM50.7111 38.317C52.0569 37.3268 52.6714 35.0101 52.2127 33.1739C51.4371 30.0643 48.4258 30.3598 47.4625 33.627C46.4938 36.9144 48.571 39.8922 50.7111 38.317ZM38.9625 46.9574C39.7355 46.3893 40.2605 45.4769 40.5341 44.5531C41.5683 41.0718 39.2343 38.1224 36.8649 39.7692C34.4168 41.4718 34.345 46.3061 36.7525 47.3122C37.5139 47.6308 38.3064 47.4406 38.9625 46.9574ZM30.6706 38.0055C53.4364 22.7982 51.9427 23.6973 52.4368 23.6822C53.2088 23.6584 53.7277 24.4088 53.9181 25.2025C60.7464 53.5872 60.3444 51.6696 60.317 52.3545C60.2824 53.2085 59.9362 54.1774 59.3173 54.7049C39.1759 71.8696 40.4641 70.8653 39.9302 71.0139C39.2139 71.213 38.5357 70.8184 38.255 69.9184L29.5018 41.847C29.0653 40.4453 29.6036 38.7206 30.6714 38.0064L30.6706 38.0055Z" fill="white"/>
</g>
<defs>
<filter id="filter0_d_273_702" x="0" y="0" width="93" height="80" filterUnits="userSpaceOnUse" color-interpolation-filters="sRGB">
<feFlood flood-opacity="0" result="BackgroundImageFix"/>
<feColorMatrix in="SourceAlpha" type="matrix" values="0 0 0 0 0 0 0 0 0 0 0 0 0 0 0 0 0 0 127 0" result="hardAlpha"/>
<feOffset dy="4"/>
<feGaussianBlur stdDeviation="2"/>
<feComposite in2="hardAlpha" operator="out"/>
<feColorMatrix type="matrix" values="0 0 0 0 0 0 0 0 0 0 0 0 0 0 0 0 0 0 0.3 0"/>
<feBlend mode="normal" in2="BackgroundImageFix" result="effect1_dropShadow_273_702"/>
<feBlend mode="normal" in="SourceGraphic" in2="effect1_dropShadow_273_702" result="shape"/>
</filter>
</defs>
</svg>
